<?xml version="1.0" standalone="no"?>
<!DOCTYPE svg PUBLIC "-//W3C//DTD SVG 20010904//EN"
 "http://www.w3.org/TR/2001/REC-SVG-20010904/DTD/svg10.dtd">
<svg version="1.0" xmlns="http://www.w3.org/2000/svg"
 width="1124.000000pt" height="1124.000000pt" viewBox="0 0 1124.000000 1124.000000"
 preserveAspectRatio="xMidYMid meet">
<metadata>
Created by potrace 1.14, written by Peter Selinger 2001-2017
</metadata>
<g transform="translate(0.000000,1124.000000) scale(0.100000,-0.100000)"
fill="#000000" stroke="none">
<path d="M290 5495 l0 -4245 700 0 700 0 0 4245 0 4245 -700 0 -700 0 0 -4245z"/>
<path d="M5780 8695 l0 -1014 1098 4 c603 2 1456 4 1895 5 l797 0 -2 1006 -3
1006 -1892 4 -1893 4 0 -1015z"/>
<path d="M9890 5435 l0 -4255 565 0 565 0 0 4255 0 4255 -565 0 -565 0 0
-4255z"/>
<path d="M5785 4032 c2 -1494 4 -2740 5 -2769 l0 -52 458 4 c251 3 503 5 560
5 l102 0 0 2760 0 2760 -167 0 c-93 0 -347 3 -565 5 l-397 4 4 -2717z"/>
<path d="M7775 3977 c2 -1514 4 -2762 5 -2774 l0 -23 313 5 c171 2 423 4 560
4 l247 1 0 2765 0 2765 -57 0 c-32 0 -286 2 -565 4 l-507 5 4 -2752z"/>
<path d="M1972 2263 l3 -1008 1753 -3 1752 -3 0 1010 0 1011 -1755 0 -1755 0
2 -1007z"/>
</g>
</svg>
