<?xml version="1.0" standalone="no"?>
<!DOCTYPE svg PUBLIC "-//W3C//DTD SVG 20010904//EN"
 "http://www.w3.org/TR/2001/REC-SVG-20010904/DTD/svg10.dtd">
<svg version="1.0" xmlns="http://www.w3.org/2000/svg"
 width="1068.000000pt" height="1068.000000pt" viewBox="0 0 1068.000000 1068.000000"
 preserveAspectRatio="xMidYMid meet">
<metadata>
Created by potrace 1.14, written by Peter Selinger 2001-2017
</metadata>
<g transform="translate(0.000000,1068.000000) scale(0.100000,-0.100000)"
fill="#000000" stroke="none">
<path d="M404 9073 c-21 -4 -21 -5 -27 -671 -9 -855 -9 -3175 0 -5170 l6
-1562 489 0 488 0 0 3705 0 3705 -467 -1 c-258 -1 -477 -4 -489 -6z"/>
<path d="M4730 8225 l0 -845 1970 0 1970 0 0 588 c0 324 -3 704 -7 845 l-6
257 -1964 0 -1963 0 0 -845z"/>
<path d="M9089 9063 l-26 -4 -6 -271 c-4 -149 -7 -1816 -7 -3704 l0 -3432 38
-7 c52 -10 1092 6 1092 16 0 5 -77 9 -172 9 -149 0 -174 2 -191 17 -18 16 -20
16 -14 1 5 -14 -9 -16 -136 -17 l-142 -2 -20 33 c-10 18 -19 38 -20 43 0 6 -7
13 -15 17 -33 15 -40 8 -40 -36 0 -31 -5 -46 -16 -50 -18 -7 -315 -7 -298 0 7
3 9 14 6 26 -4 18 -2 20 26 13 26 -5 36 -2 57 19 25 26 33 56 15 56 -6 0 -20
9 -32 20 -25 23 -80 50 -102 50 -13 0 -16 11 -16 54 0 51 2 55 29 64 26 9 32
7 44 -11 12 -18 19 -20 34 -11 10 6 20 20 21 30 6 28 20 40 34 26 8 -8 8 -15
-1 -25 -13 -17 4 -56 38 -88 29 -27 73 -22 86 10 10 22 13 23 89 18 71 -5 79
-4 83 14 4 12 14 19 30 19 39 0 117 -22 135 -38 15 -13 21 -12 50 5 18 10 41
22 50 26 15 5 16 4 5 -13 -10 -18 -7 -24 26 -53 20 -19 37 -38 37 -44 0 -6 10
-13 22 -17 18 -4 20 -8 10 -18 -22 -22 -13 -36 24 -35 23 1 39 -5 45 -15 5 -9
25 -19 44 -22 19 -4 43 -15 53 -26 9 -10 30 -22 46 -26 26 -6 29 -5 23 15 -4
18 -2 21 14 16 12 -4 19 -1 20 7 1 7 5 0 9 -17 6 -22 8 -12 8 40 0 39 -2 63
-5 54 -5 -19 -42 -29 -92 -24 -35 3 -72 37 -91 82 -13 32 -69 64 -97 57 -23
-6 -53 10 -53 27 0 5 12 9 26 9 25 0 26 2 22 46 -3 41 -1 45 16 40 11 -3 26 0
33 6 10 8 18 4 33 -13 15 -19 19 -21 20 -7 0 9 -6 19 -12 22 -7 3 14 3 47 -1
33 -4 79 -6 102 -5 41 1 42 0 46 -36 2 -20 4 79 5 221 1 141 -1 256 -5 256 -5
-1 -15 -1 -23 0 -13 1 -13 3 0 10 8 6 18 7 22 5 4 -3 8 1473 8 3279 l0 3284
-167 6 c-174 7 -879 7 -924 0z m579 -6667 c3 -22 0 -27 -12 -23 -10 4 -13 1
-10 -7 4 -10 -9 -16 -45 -21 -83 -11 -85 6 -7 62 42 30 70 26 74 -11z m-26
-104 c4 -15 0 -17 -23 -14 -19 3 -26 9 -22 18 7 20 40 17 45 -4z m-288 -168
c7 -9 34 -20 61 -25 56 -10 57 -11 50 -32 -9 -21 -52 -27 -84 -11 -14 8 -33
14 -41 14 -23 0 -61 30 -54 41 5 9 38 26 53 28 2 1 9 -6 15 -15z m235 -38 c29
-8 60 -21 70 -29 29 -25 107 -57 139 -57 18 0 32 -4 32 -10 0 -5 -9 -10 -19
-10 -11 0 -21 -4 -23 -9 -1 -5 -16 -12 -33 -15 -16 -4 -24 -3 -17 0 6 3 12 10
12 15 0 6 -4 8 -9 5 -5 -3 -35 3 -67 13 -33 11 -76 23 -97 26 -20 4 -40 11
-43 16 -3 5 -17 9 -32 9 -19 0 -23 3 -13 9 10 7 11 10 1 16 -10 6 -9 11 5 22
23 16 27 16 94 -1z m-414 -336 c3 -5 -3 -10 -14 -10 -12 0 -21 5 -21 10 0 6 6
10 14 10 8 0 18 -4 21 -10z m939 -6 c3 -8 2 -12 -4 -9 -6 3 -10 10 -10 16 0
14 7 11 14 -7z"/>
<path d="M4759 6423 l-26 -4 -6 -526 c-9 -675 -9 -2323 0 -3401 l6 -842 297 0
c163 0 412 3 553 7 l257 6 -2 2381 -3 2381 -525 1 c-289 1 -537 -1 -551 -3z
m721 -3833 c0 -5 -4 -10 -10 -10 -5 0 -10 5 -10 10 0 6 5 10 10 10 6 0 10 -4
10 -10z m-220 -805 c0 -9 4 -14 9 -11 16 10 33 -22 26 -52 l-6 -29 53 -1 c29
0 94 -5 143 -10 78 -8 56 -9 -160 -10 -237 -1 -248 0 -217 15 34 18 40 29 20
36 -7 2 1 2 17 -1 l30 -5 -25 22 c-18 16 -21 24 -12 28 7 3 18 11 25 17 6 7
30 13 54 15 34 1 43 -2 43 -14z m-263 -111 c-3 -3 -12 -4 -19 -1 -8 3 -5 6 6
6 11 1 17 -2 13 -5z"/>
<path d="M5180 1770 c0 -5 16 -10 35 -10 19 0 35 5 35 10 0 6 -16 10 -35 10
-19 0 -35 -4 -35 -10z"/>
<path d="M5195 1690 c-3 -5 3 -10 14 -10 12 0 21 5 21 10 0 6 -6 10 -14 10 -8
0 -18 -4 -21 -10z"/>
<path d="M6859 6413 l-37 -4 -7 -907 c-7 -808 0 -3851 9 -3859 8 -8 1095 -7
1103 0 4 5 9 1079 11 2386 l3 2378 -47 7 c-49 6 -972 6 -1035 -1z m826 -3943
c3 -5 -5 -16 -17 -24 -27 -17 -180 -26 -188 -11 -13 26 189 61 205 35z m-665
-125 c0 -3 -18 -16 -40 -30 -29 -18 -47 -23 -70 -19 -19 4 -30 2 -30 -4 0 -6
7 -9 15 -6 21 8 19 0 -10 -46 -14 -22 -25 -44 -25 -49 0 -5 -4 -13 -10 -16 -6
-4 -10 23 -10 73 0 77 1 80 25 84 14 3 25 2 25 -2 0 -4 13 -7 30 -7 16 0 27 4
24 8 -4 7 14 12 64 18 6 0 12 -1 12 -4z m297 -127 c23 -12 44 -30 46 -40 5
-18 -19 -46 -30 -34 -3 3 -1 6 5 6 23 0 12 18 -14 24 -31 8 -41 2 -26 -17 9
-10 1 -12 -36 -11 -62 2 -62 2 -62 19 0 8 9 15 20 15 11 0 20 5 20 11 0 7 -7
8 -17 4 -71 -30 -85 -7 -15 23 59 27 58 27 109 0z m-312 -49 c10 -15 -1 -23
-20 -15 -9 3 -13 10 -10 16 8 13 22 13 30 -1z m19 -114 c3 -9 0 -15 -9 -15 -8
0 -15 -4 -15 -10 0 -5 5 -10 12 -10 6 0 9 -2 7 -5 -3 -2 -15 -2 -27 2 -18 4
-20 8 -11 19 9 11 9 14 0 14 -7 0 -9 5 -6 10 9 15 42 12 49 -5z m21 -106 c4
-6 5 -12 2 -15 -7 -7 -37 7 -37 17 0 13 27 11 35 -2z m-139 -74 c10 -9 24 -13
40 -9 14 4 24 2 24 -5 0 -6 -7 -11 -15 -11 -8 0 -15 -5 -15 -11 0 -7 11 -8 32
-4 29 7 31 6 16 -9 -22 -22 -12 -53 20 -59 15 -3 33 -15 40 -27 17 -28 5 -41
-14 -15 -14 19 -15 19 -20 -3 -4 -12 -11 -22 -16 -22 -5 0 -6 -4 -3 -10 3 -5
16 -10 28 -10 15 0 18 -3 10 -11 -6 -6 -51 -12 -102 -12 l-91 -2 0 52 c0 42 5
57 25 79 19 21 22 30 14 40 -17 20 -27 17 -32 -8 -3 -15 -5 -11 -6 12 -1 33 8
44 47 59 2 0 10 -6 18 -14z m284 -11 c0 -9 5 -12 13 -8 6 4 2 -3 -9 -16 -19
-19 -24 -20 -42 -9 -33 21 -37 41 -7 33 15 -4 25 -2 25 5 0 6 5 11 10 11 6 0
10 -7 10 -16z m-154 -39 c-3 -9 -11 -13 -16 -10 -8 5 -8 11 -1 19 6 7 9 15 7
18 -1 3 2 2 7 -3 5 -4 7 -15 3 -24z m877 -62 c2 -54 3 -101 1 -105 -2 -3 -13
-4 -24 -1 -15 4 -17 9 -10 23 13 23 -3 35 -28 21 -15 -8 -20 -4 -31 21 -16 37
-7 48 42 50 24 1 37 6 37 15 0 7 -7 13 -15 13 -21 0 -37 34 -23 48 7 7 19 12
29 12 14 0 17 -15 22 -97z m-103 42 c0 -8 -9 -15 -20 -15 -20 0 -26 11 -13 23
12 13 33 7 33 -8z m-95 -5 c3 -6 -1 -7 -9 -4 -18 7 -21 14 -7 14 6 0 13 -4 16
-10z m-562 -31 l21 -12 -23 -9 c-26 -9 -41 -3 -41 18 0 17 14 18 43 3z m142
-19 c22 -24 15 -27 -71 -32 -60 -4 -61 -3 -50 16 16 30 27 36 67 36 23 0 42
-7 54 -20z m435 0 c0 -5 -4 -10 -10 -10 -5 0 -10 5 -10 10 0 6 5 10 10 10 6 0
10 -4 10 -10z m-47 -36 c22 4 42 0 65 -14 18 -11 41 -20 52 -20 32 0 32 -18 0
-25 -20 -4 -39 -2 -53 8 -14 9 -29 12 -38 7 -26 -15 -209 -17 -195 -2 4 4 11
7 14 8 45 6 102 31 102 44 0 26 15 34 18 10 3 -19 8 -21 35 -16z m-333 -44
c11 -7 1 -9 -35 -9 -40 1 -45 3 -25 9 35 11 43 11 60 0z"/>
<path d="M1714 3363 l-71 -4 -7 -61 c-3 -33 -6 -414 -6 -844 l0 -784 758 0
c417 0 996 3 1285 7 l527 6 0 838 0 838 -267 3 c-390 5 -2136 5 -2219 1z"/>
<path d="M9182 1937 c-7 -8 -13 -24 -14 -38 -2 -18 2 -25 18 -27 18 -3 21 2
20 32 -2 42 -9 51 -24 33z"/>
<path d="M9540 1900 c0 -5 7 -10 15 -10 8 0 15 5 15 10 0 6 -7 10 -15 10 -8 0
-15 -4 -15 -10z"/>
<path d="M9616 1887 c-15 -11 -16 -18 -8 -34 6 -11 18 -26 27 -33 13 -11 18
-10 34 4 21 19 17 56 -5 56 -8 0 -14 5 -14 10 0 14 -13 13 -34 -3z"/>
<path d="M9290 1860 c0 -6 -9 -23 -20 -38 -22 -30 -18 -62 6 -62 10 0 13 7 8
25 -5 20 -1 27 20 37 16 6 26 18 24 27 -4 18 -38 28 -38 11z"/>
<path d="M9553 1798 c-18 -5 -33 -13 -33 -18 0 -17 60 -11 67 5 8 22 3 23 -34
13z"/>
<path d="M9300 1760 c0 -5 5 -10 10 -10 6 0 10 5 10 10 0 6 -4 10 -10 10 -5 0
-10 -4 -10 -10z"/>
</g>
</svg>
